<svg version="1.1" id="Layer_1" xmlns="http://www.w3.org/2000/svg" xmlns:xlink="http://www.w3.org/1999/xlink" x="0px" y="0px"
	 width="100%" viewBox="0 0 696 694" enable-background="new 0 0 696 694" xml:space="preserve">
<path fill="#353536" opacity="1.000000" stroke="none" 
	d="
M1.000000,252.000000 
	C1.000000,168.000000 1.000000,84.500000 1.000000,1.000000 
	C233.000000,1.000000 465.000000,1.000000 697.000000,1.000000 
	C697.000000,232.333328 697.000000,463.666656 697.000000,695.000000 
	C465.000000,695.000000 233.000000,695.000000 1.000000,695.000000 
	C1.000000,547.500000 1.000000,400.000000 1.000000,252.000000 
M484.080078,473.071259 
	C473.790405,473.054840 463.497894,472.887238 453.212128,473.079407 
	C447.169922,473.192291 442.802765,478.038025 443.019562,483.717987 
	C443.228973,489.204224 447.215485,493.086304 453.147095,493.120361 
	C463.764008,493.181366 474.382141,493.020752 485.925903,493.110382 
	C499.949860,493.058777 513.973816,493.007202 528.923950,493.114838 
	C543.042725,493.128326 557.162231,493.226318 571.280029,493.115295 
	C577.233643,493.068512 581.456482,488.695404 581.473816,483.086517 
	C581.490662,477.666260 577.461304,473.135590 571.826172,473.091614 
	C557.217468,472.977478 542.606262,473.179230 527.074524,473.073151 
	C513.050110,473.134979 499.025757,473.196808 484.080078,473.071259 
M551.075500,144.869385 
	C535.049683,144.937927 519.023865,145.006470 502.078644,144.875854 
	C485.965759,144.847977 469.852631,144.756271 453.740143,144.823441 
	C447.248932,144.850510 443.009613,148.932816 443.004700,154.727127 
	C443.000092,160.171951 447.309723,164.884674 453.176514,164.925369 
	C469.780518,165.040573 486.386749,164.832748 503.913971,164.942413 
	C519.939331,164.883209 535.964722,164.824005 552.912537,164.953781 
	C561.869202,164.975128 570.827026,165.089493 579.782227,164.985596 
	C585.890625,164.914734 590.029724,160.863602 590.146606,155.219086 
	C590.265198,149.491730 586.304993,144.993393 580.334290,144.884567 
	C570.892456,144.712433 561.442566,144.979477 551.075500,144.869385 
M488.075287,538.875916 
	C471.717072,538.941040 455.358826,539.006165 438.081726,538.866272 
	C425.053101,538.935608 412.024506,539.004944 398.076294,538.877991 
	C379.384644,538.940430 360.692993,539.002930 341.082886,538.857300 
	C326.053223,538.926270 311.023529,538.995239 295.074371,538.868591 
	C276.381866,538.939331 257.689331,539.010071 238.078873,538.874451 
	C221.052048,538.944031 204.025208,539.013672 186.081558,538.869934 
	C173.616196,538.840759 161.150681,538.763062 148.685532,538.802368 
	C142.192429,538.822876 137.890198,542.741882 137.751541,548.505066 
	C137.610657,554.361877 141.677872,558.814758 148.127655,558.898071 
	C161.082016,559.065613 174.041763,558.816223 187.918457,558.933594 
	C204.943573,558.868835 221.968674,558.804016 239.913254,558.936218 
	C258.603943,558.875488 277.294647,558.814697 296.907410,558.948853 
	C311.939728,558.885620 326.972076,558.822449 342.925354,558.940918 
	C361.613007,558.878418 380.300659,558.815918 399.910309,558.947021 
	C412.941467,558.883057 425.972656,558.819031 439.924652,558.937500 
	C456.278839,558.878113 472.633057,558.818726 489.909607,558.951294 
	C498.710114,558.964905 507.515625,559.165588 516.309387,558.928833 
	C522.585999,558.759827 526.893738,554.154541 526.738159,548.496521 
	C526.578735,542.696899 522.611694,538.840698 516.370544,538.817383 
	C507.246094,538.783203 498.120819,538.972656 488.075287,538.875916 
M579.069946,276.074890 
	C572.907104,276.049835 566.744263,276.007538 560.581421,276.003754 
	C551.253174,275.997986 541.921448,275.867889 532.597900,276.082367 
	C526.467041,276.223358 522.630310,280.483612 522.747742,286.360596 
	C522.862183,292.094208 526.645020,296.091339 532.536621,296.111603 
	C548.356873,296.166077 564.177673,296.021362 580.924561,296.115021 
	C594.082581,296.130615 607.240845,296.197632 620.398499,296.139069 
	C626.532654,296.111755 630.805908,292.076202 630.924377,286.494202 
	C631.041016,280.999817 626.823608,276.201447 620.940674,276.127075 
	C607.293274,275.954468 593.640686,276.187103 579.069946,276.074890 
M382.923431,296.116058 
	C398.561462,296.131592 414.199677,296.197815 429.837433,296.137970 
	C436.152283,296.113800 440.063477,292.300354 440.154816,286.435394 
	C440.246887,280.527130 436.442444,276.133484 430.379761,276.090454 
	C414.251160,275.975952 398.120300,276.182037 381.070343,276.078186 
	C372.411224,276.053131 363.752075,276.010498 355.092957,276.008301 
	C347.599640,276.006409 340.097015,275.830078 332.615997,276.145416 
	C326.883087,276.387024 323.060242,280.865753 323.178284,286.385437 
	C323.298889,292.024536 327.173248,296.088806 333.050812,296.110321 
	C349.365967,296.170074 365.681915,296.020447 382.923431,296.116058 
M381.913269,361.943207 
	C391.897369,361.969696 401.881470,362.006256 411.865570,362.018982 
	C418.022614,362.026855 424.188049,362.193726 430.334412,361.930908 
	C436.443604,361.669617 440.279572,357.418488 440.196014,351.587891 
	C440.117462,346.108459 436.453461,341.908844 430.893341,341.876801 
	C414.262024,341.780914 397.629028,341.982056 380.077209,341.869110 
	C364.589966,341.843475 349.102386,341.746674 333.615692,341.826965 
	C327.346802,341.859436 323.340881,345.780151 323.181396,351.544220 
	C323.023743,357.242462 327.001465,361.844238 333.050354,361.900757 
	C349.029327,362.050049 365.011810,361.825836 381.913269,361.943207 
M583.074951,341.875977 
	C566.413879,341.851685 549.752502,341.767456 533.091797,341.833679 
	C526.769775,341.858795 522.909363,345.665741 522.749084,351.578003 
	C522.588684,357.495117 526.354675,361.868195 532.521484,361.912903 
	C549.675476,362.037384 566.831848,361.833557 584.909546,361.951294 
	C596.740662,361.972839 608.573181,362.109528 620.402405,361.969849 
	C626.792175,361.894409 631.064697,357.474945 630.931946,351.656036 
	C630.804260,346.057892 626.578369,341.862793 620.464966,341.833679 
	C608.309082,341.775848 596.152100,341.974243 583.074951,341.875977 
M199.067184,473.076355 
	C182.114365,473.053711 165.161209,472.962891 148.208878,473.043823 
	C141.916748,473.073883 137.673569,477.434723 137.755966,483.296600 
	C137.834503,488.885223 142.028732,493.092224 148.153290,493.112854 
	C165.434113,493.170990 182.715637,493.023346 200.922028,493.124664 
	C211.576675,493.138153 222.232025,493.229248 232.885727,493.135193 
	C238.991211,493.081299 243.230667,488.992523 243.374786,483.386902 
	C243.519180,477.770569 239.344635,473.143311 233.426315,473.077393 
	C222.281906,472.953308 211.133591,473.178070 199.067184,473.076355 
M201.908615,361.949005 
	C212.230225,361.966370 222.553909,362.114990 232.872665,361.951660 
	C239.016205,361.854462 243.237717,357.650818 243.364578,352.110443 
	C243.489960,346.635742 239.498062,341.946686 233.930756,341.873352 
	C222.955246,341.728729 211.974518,341.980591 200.077469,341.866119 
	C182.961655,341.838013 165.845734,341.762146 148.730103,341.806152 
	C142.188324,341.822968 137.921936,345.727234 137.750076,351.507233 
	C137.579437,357.245941 141.806015,361.868195 148.162582,361.913361 
	C165.769669,362.038513 183.379166,361.828430 201.908615,361.949005 
M201.921875,296.124481 
	C212.241119,296.139343 222.560822,296.218201 232.879440,296.144867 
	C239.000061,296.101379 243.218979,292.081024 243.371780,286.440643 
	C243.521378,280.918854 239.276047,276.170502 233.419052,276.089233 
	C222.611115,275.939301 211.797775,276.180145 200.067017,276.076569 
	C182.783020,276.056915 165.498520,275.954865 148.215286,276.060944 
	C141.911102,276.099670 137.685028,280.503906 137.761765,286.349396 
	C137.832916,291.769714 141.932114,296.087280 147.661102,296.107819 
	C165.439240,296.171631 183.218140,296.022827 201.921875,296.124481 
M554.728271,427.395599 
	C570.678589,427.440765 586.629150,427.557098 602.578979,427.492645 
	C608.193726,427.469971 611.743469,424.560211 612.764648,419.763184 
	C614.269409,412.695007 609.640991,407.354248 601.786438,407.332642 
	C581.512756,407.276855 561.238770,407.280396 540.965027,407.327789 
	C535.331360,407.340942 529.698181,407.589813 523.151611,407.466125 
	C518.673096,407.435883 514.182495,407.185944 509.718994,407.430511 
	C504.014709,407.743164 499.819794,412.522614 500.014740,418.006897 
	C500.196564,423.121643 503.982971,427.245728 509.174896,427.272736 
	C524.103149,427.350433 539.032593,427.188171 554.728271,427.395599 
M347.926300,99.304909 
	C367.282196,99.240776 386.638123,99.176636 406.919220,99.286324 
	C429.937805,99.229095 452.956421,99.171867 476.737427,99.393959 
	C487.901123,99.447311 499.064911,99.550392 510.228516,99.536606 
	C517.723511,99.527344 525.237793,99.648628 532.707031,99.157387 
	C538.602600,98.769653 542.061157,94.313759 541.748413,88.666595 
	C541.463501,83.522202 537.319946,79.213150 531.955139,79.197449 
	C513.294922,79.142830 494.634064,79.300163 475.051971,79.222961 
	C452.039062,79.274712 429.026154,79.326454 405.088135,79.207344 
	C385.717804,79.263184 366.347443,79.319023 346.055450,79.218483 
	C324.364838,79.276604 302.674255,79.334732 280.062408,79.228592 
	C258.370361,79.283493 236.678329,79.338387 214.065063,79.226509 
	C192.285873,79.203552 170.506653,79.152176 148.727509,79.175125 
	C142.270477,79.181923 137.928421,83.145111 137.764389,88.921883 
	C137.600143,94.706032 141.742874,99.196388 148.190063,99.227051 
	C170.460281,99.332993 192.731812,99.159737 215.923218,99.287369 
	C237.616776,99.222694 259.310333,99.158012 281.924530,99.285774 
	C303.617981,99.229431 325.311401,99.173088 347.926300,99.304909 
M570.859436,230.732391 
	C582.822266,230.770508 594.786865,230.945435 606.747375,230.797180 
	C614.347473,230.702988 618.920715,225.301987 617.588989,218.561218 
	C616.554688,213.325546 612.505981,210.306259 606.201965,210.295670 
	C584.100952,210.258545 561.999695,210.254532 539.898743,210.295319 
	C535.262329,210.303879 530.626343,210.556595 525.087036,210.458893 
	C520.440735,210.420319 515.793030,210.293137 511.148407,210.364594 
	C504.680023,210.464081 500.226196,214.390762 500.011261,220.000641 
	C499.794952,225.646744 503.989319,230.579529 510.219818,230.633606 
	C530.126343,230.806381 550.036560,230.558014 570.859436,230.732391 
M77.938232,428.500000 
	C77.938255,489.662994 77.931259,550.825989 77.943848,611.988953 
	C77.946556,625.167114 84.806709,632.011230 97.958351,632.011536 
	C238.950851,632.015259 379.943359,632.013855 520.935852,632.013855 
	C522.697021,632.013855 524.458191,632.013855 526.307251,632.013855 
	C526.307251,619.929749 526.307251,608.538940 526.307251,596.603271 
	C388.512939,596.603271 251.107513,596.603271 113.026474,596.603271 
	C113.026474,423.868744 113.026474,251.683228 113.026474,79.430145 
	C101.085335,79.430145 89.823486,79.430145 77.938217,79.430145 
	C77.938217,195.630264 77.938217,311.565125 77.938232,428.500000 
M168.500031,230.825562 
	C189.471603,230.820541 210.443344,230.861252 231.414658,230.785782 
	C238.797287,230.759216 243.560226,226.476608 243.429794,220.335983 
	C243.300995,214.271622 238.735733,210.354843 231.526443,210.344162 
	C204.230148,210.303711 176.933777,210.302917 149.637466,210.324371 
	C142.289352,210.330139 137.523621,214.495483 137.579300,220.700317 
	C137.631592,226.529907 142.422821,230.664749 149.524887,230.798065 
	C155.514679,230.910507 161.508209,230.824005 168.500031,230.825562 
M209.499817,427.490326 
	C217.492859,427.477753 225.489487,427.607208 233.477722,427.404968 
	C239.234146,427.259277 242.933258,423.512573 243.242645,418.095947 
	C243.547211,412.763397 240.151657,408.435089 234.746704,407.434326 
	C233.287155,407.164093 231.763260,407.171051 230.268829,407.169983 
	C203.791473,407.151398 177.314041,407.127289 150.836853,407.189514 
	C148.546021,407.194885 146.095932,407.386139 143.999588,408.206238 
	C139.452499,409.985046 137.433105,413.663513 137.809372,418.520508 
	C138.155090,422.983246 141.521011,426.570892 146.067337,427.286896 
	C147.861313,427.569427 149.719513,427.495667 151.548492,427.496460 
	C170.532257,427.504395 189.516022,427.494446 209.499817,427.490326 
M241.507309,160.724319 
	C245.729538,151.880081 241.524612,144.843979 231.779694,144.813461 
	C204.280365,144.727295 176.780548,144.739410 149.281067,144.787231 
	C142.040756,144.799820 137.645920,148.836151 137.737671,155.040863 
	C137.825806,161.001740 142.215088,164.982910 149.126587,164.995834 
	C176.792725,165.047623 204.460144,165.118698 232.123703,164.842728 
	C235.106613,164.812973 238.067490,162.573196 241.507309,160.724319 
M329.040131,211.244049 
	C324.016724,214.448227 322.071777,218.395599 323.413116,223.266800 
	C324.720062,228.013092 328.216217,230.596573 332.922180,230.689560 
	C344.705414,230.922424 356.501984,230.977554 368.282013,230.672180 
	C374.538635,230.509995 378.116608,226.218628 377.962433,220.279770 
	C377.817688,214.704376 373.750702,210.612549 367.563446,210.386887 
	C360.930420,210.144958 354.280853,210.231903 347.641052,210.337189 
	C341.688019,210.431564 335.738403,210.745804 329.040131,211.244049 
M366.884827,427.497040 
	C374.378754,426.738831 378.251556,422.991455 377.941833,416.798126 
	C377.641937,410.800110 373.475220,407.242584 366.303162,407.180359 
	C355.668671,407.088104 345.030701,407.036499 334.398102,407.208679 
	C327.276794,407.324005 323.009491,411.556671 323.164093,417.806976 
	C323.313416,423.845673 327.478210,427.456848 334.586517,427.499023 
	C345.055359,427.561096 355.524811,427.510254 366.884827,427.497040 
z"/>
<path fill="#FDFDFD" opacity="1.000000" stroke="none" 
	d="
M77.938225,428.000000 
	C77.938217,311.565125 77.938217,195.630264 77.938217,79.430145 
	C89.823486,79.430145 101.085335,79.430145 113.026474,79.430145 
	C113.026474,251.683228 113.026474,423.868744 113.026474,596.603271 
	C251.107513,596.603271 388.512939,596.603271 526.307251,596.603271 
	C526.307251,608.538940 526.307251,619.929749 526.307251,632.013855 
	C524.458191,632.013855 522.697021,632.013855 520.935852,632.013855 
	C379.943359,632.013855 238.950851,632.015259 97.958351,632.011536 
	C84.806709,632.011230 77.946556,625.167114 77.943848,611.988953 
	C77.931259,550.825989 77.938255,489.662994 77.938225,428.000000 
z"/>
<path fill="#4A8AF6" opacity="1.000000" stroke="none" 
	d="
M168.000061,230.825562 
	C161.508209,230.824005 155.514679,230.910507 149.524887,230.798065 
	C142.422821,230.664749 137.631592,226.529907 137.579300,220.700317 
	C137.523621,214.495483 142.289352,210.330139 149.637466,210.324371 
	C176.933777,210.302917 204.230148,210.303711 231.526443,210.344162 
	C238.735733,210.354843 243.300995,214.271622 243.429794,220.335983 
	C243.560226,226.476608 238.797287,230.759216 231.414658,230.785782 
	C210.443344,230.861252 189.471603,230.820541 168.000061,230.825562 
z"/>
<path fill="#4B8CFA" opacity="1.000000" stroke="none" 
	d="
M208.999802,427.489868 
	C189.516022,427.494446 170.532257,427.504395 151.548492,427.496460 
	C149.719513,427.495667 147.861313,427.569427 146.067337,427.286896 
	C141.521011,426.570892 138.155090,422.983246 137.809372,418.520508 
	C137.433105,413.663513 139.452499,409.985046 143.999588,408.206238 
	C146.095932,407.386139 148.546021,407.194885 150.836853,407.189514 
	C177.314041,407.127289 203.791473,407.151398 230.268829,407.169983 
	C231.763260,407.171051 233.287155,407.164093 234.746704,407.434326 
	C240.151657,408.435089 243.547211,412.763397 243.242645,418.095947 
	C242.933258,423.512573 239.234146,427.259277 233.477722,427.404968 
	C225.489487,427.607208 217.492859,427.477753 208.999802,427.489868 
z"/>
<path fill="#4B8CFA" opacity="1.000000" stroke="none" 
	d="
M241.272949,161.041443 
	C238.067490,162.573196 235.106613,164.812973 232.123703,164.842728 
	C204.460144,165.118698 176.792725,165.047623 149.126587,164.995834 
	C142.215088,164.982910 137.825806,161.001740 137.737671,155.040863 
	C137.645920,148.836151 142.040756,144.799820 149.281067,144.787231 
	C176.780548,144.739410 204.280365,144.727295 231.779694,144.813461 
	C241.524612,144.843979 245.729538,151.880081 241.272949,161.041443 
z"/>
<path fill="#4B8EFD" opacity="1.000000" stroke="none" 
	d="
M215.002853,99.092789 
	C192.731812,99.159737 170.460281,99.332993 148.190063,99.227051 
	C141.742874,99.196388 137.600143,94.706032 137.764389,88.921883 
	C137.928421,83.145111 142.270477,79.181923 148.727509,79.175125 
	C170.506653,79.152176 192.285873,79.203552 214.528503,79.751923 
	C214.995590,86.549156 214.999222,92.820976 215.002853,99.092789 
z"/>
<path fill="#3466FF" opacity="1.000000" stroke="none" 
	d="
M406.013245,79.378204 
	C429.026154,79.326454 452.039062,79.274712 475.518372,79.742683 
	C475.981506,86.546478 475.978241,92.830559 475.974976,99.114632 
	C452.956421,99.171867 429.937805,99.229095 406.457642,98.722595 
	C406.001770,91.898643 406.007507,85.638428 406.013245,79.378204 
z"/>
<path fill="#2F5BF7" opacity="1.000000" stroke="none" 
	d="
M476.356201,99.254295 
	C475.978241,92.830559 475.981506,86.546478 475.979126,79.819656 
	C494.634064,79.300163 513.294922,79.142830 531.955139,79.197449 
	C537.319946,79.213150 541.463501,83.522202 541.748413,88.666595 
	C542.061157,94.313759 538.602600,98.769653 532.707031,99.157387 
	C525.237793,99.648628 517.723511,99.527344 510.228516,99.536606 
	C499.064911,99.550392 487.901123,99.447311 476.356201,99.254295 
z"/>
<path fill="#3363FE" opacity="1.000000" stroke="none" 
	d="
M569.945312,230.472260 
	C550.036560,230.558014 530.126343,230.806381 510.219818,230.633606 
	C503.989319,230.579529 499.794952,225.646744 500.011261,220.000641 
	C500.226196,214.390762 504.680023,210.464081 511.148407,210.364594 
	C515.793030,210.293137 520.440735,210.420319 525.758667,210.860413 
	C528.198547,211.505783 529.965454,211.949646 531.735107,211.960724 
	C542.518921,212.028244 553.307129,212.165344 564.085693,211.920517 
	C568.703796,211.815628 570.370605,213.529572 570.064209,218.033630 
	C569.783203,222.163422 569.966553,226.324814 569.945312,230.472260 
z"/>
<path fill="#4583FE" opacity="1.000000" stroke="none" 
	d="
M215.463043,99.190079 
	C214.999222,92.820976 214.995590,86.549156 214.989120,79.835312 
	C236.678329,79.338387 258.370361,79.283493 280.526306,79.752686 
	C280.994751,86.548958 280.999329,92.821152 281.003906,99.093338 
	C259.310333,99.158012 237.616776,99.222694 215.463043,99.190079 
z"/>
<path fill="#3F79FD" opacity="1.000000" stroke="none" 
	d="
M281.464203,99.189560 
	C280.999329,92.821152 280.994751,86.548958 280.986908,79.834816 
	C302.674255,79.334732 324.364838,79.276604 346.521179,79.739700 
	C346.992889,86.546196 346.998871,92.831467 347.004822,99.116745 
	C325.311401,99.173088 303.617981,99.229431 281.464203,99.189560 
z"/>
<path fill="#2F5BF7" opacity="1.000000" stroke="none" 
	d="
M524.064819,407.730530 
	C529.698181,407.589813 535.331360,407.340942 540.965027,407.327789 
	C561.238770,407.280396 581.512756,407.276855 601.786438,407.332642 
	C609.640991,407.354248 614.269409,412.695007 612.764648,419.763184 
	C611.743469,424.560211 608.193726,427.469971 602.578979,427.492645 
	C586.629150,427.557098 570.678589,427.440765 554.355591,426.781494 
	C553.989380,422.678680 554.004456,419.189972 554.000671,415.701263 
	C553.993530,409.021301 553.989075,409.013702 547.538391,409.002625 
	C541.225403,408.991791 534.910706,409.078400 528.600769,408.939911 
	C527.080688,408.906555 525.576355,408.152924 524.064819,407.730530 
z"/>
<path fill="#4C90FD" opacity="1.000000" stroke="none" 
	d="
M200.996735,295.956512 
	C183.218140,296.022827 165.439240,296.171631 147.661102,296.107819 
	C141.932114,296.087280 137.832916,291.769714 137.761765,286.349396 
	C137.685028,280.503906 141.911102,276.099670 148.215286,276.060944 
	C165.498520,275.954865 182.783020,276.056915 200.528992,276.617950 
	C200.992889,283.425049 200.994812,289.690796 200.996735,295.956512 
z"/>
<path fill="#4C90FD" opacity="1.000000" stroke="none" 
	d="
M200.987701,361.750854 
	C183.379166,361.828430 165.769669,362.038513 148.162582,361.913361 
	C141.806015,361.868195 137.579437,357.245941 137.750076,351.507233 
	C137.921936,345.727234 142.188324,341.822968 148.730103,341.806152 
	C165.845734,341.762146 182.961655,341.838013 200.536484,342.430603 
	C200.992905,349.247040 200.990295,355.498932 200.987701,361.750854 
z"/>
<path fill="#4C90FD" opacity="1.000000" stroke="none" 
	d="
M199.996887,492.956818 
	C182.715637,493.023346 165.434113,493.170990 148.153290,493.112854 
	C142.028732,493.092224 137.834503,488.885223 137.755966,483.296600 
	C137.673569,477.434723 141.916748,473.073883 148.208878,473.043823 
	C165.161209,472.962891 182.114365,473.053711 199.529160,473.617676 
	C199.993042,480.424957 199.994965,486.690887 199.996887,492.956818 
z"/>
<path fill="#3260FE" opacity="1.000000" stroke="none" 
	d="
M583.987244,361.759399 
	C566.831848,361.833557 549.675476,362.037384 532.521484,361.912903 
	C526.354675,361.868195 522.588684,357.495117 522.749084,351.578003 
	C522.909363,345.665741 526.769775,341.858795 533.091797,341.833679 
	C549.752502,341.767456 566.413879,341.851685 583.535522,342.434662 
	C583.993103,349.248688 583.990173,355.504059 583.987244,361.759399 
z"/>
<path fill="#3B70F8" opacity="1.000000" stroke="none" 
	d="
M347.465576,99.210831 
	C346.998871,92.831467 346.992889,86.546196 346.981995,79.817886 
	C366.347443,79.319023 385.717804,79.263184 405.550690,79.292770 
	C406.007507,85.638428 406.001770,91.898643 405.995026,98.635681 
	C386.638123,99.176636 367.282196,99.240776 347.465576,99.210831 
z"/>
<path fill="#386BFD" opacity="1.000000" stroke="none" 
	d="
M502.992126,164.752182 
	C486.386749,164.832748 469.780518,165.040573 453.176514,164.925369 
	C447.309723,164.884674 443.000092,160.171951 443.004700,154.727127 
	C443.009613,148.932816 447.248932,144.850510 453.740143,144.823441 
	C469.852631,144.756271 485.965759,144.847977 502.538208,145.438126 
	C502.995880,152.250992 502.993988,158.501587 502.992126,164.752182 
z"/>
<path fill="#3C71F9" opacity="1.000000" stroke="none" 
	d="
M380.996674,342.067230 
	C397.629028,341.982056 414.262024,341.780914 430.893341,341.876801 
	C436.453461,341.908844 440.117462,346.108459 440.196014,351.587891 
	C440.279572,357.418488 436.443604,361.669617 430.334412,361.930908 
	C424.188049,362.193726 418.022614,362.026855 411.865570,362.018982 
	C401.881470,362.006256 391.897369,361.969696 381.453857,361.395813 
	C380.995209,354.588043 380.995941,348.327637 380.996674,342.067230 
z"/>
<path fill="#3A6FFE" opacity="1.000000" stroke="none" 
	d="
M342.001343,539.065430 
	C360.692993,539.002930 379.384644,538.940430 398.536133,539.438843 
	C398.993408,546.250977 398.990845,552.502136 398.988312,558.753418 
	C380.300659,558.815918 361.613007,558.878418 342.464111,558.398560 
	C342.002380,551.592590 342.001862,545.328979 342.001343,539.065430 
z"/>
<path fill="#4480FC" opacity="1.000000" stroke="none" 
	d="
M295.985352,558.753906 
	C277.294647,558.814697 258.603943,558.875488 239.453827,558.387451 
	C238.995209,551.585999 238.996017,545.333374 238.996811,539.080811 
	C257.689331,539.010071 276.381866,538.939331 295.534485,539.429932 
	C295.991547,546.245544 295.988434,552.499756 295.985352,558.753906 
z"/>
<path fill="#3F79FD" opacity="1.000000" stroke="none" 
	d="
M381.997528,295.953552 
	C365.681915,296.020447 349.365967,296.170074 333.050812,296.110321 
	C327.173248,296.088806 323.298889,292.024536 323.178284,286.385437 
	C323.060242,280.865753 326.883087,276.387024 332.615997,276.145416 
	C340.097015,275.830078 347.599640,276.006409 355.092957,276.008301 
	C363.752075,276.010498 372.411224,276.053131 381.532013,276.619629 
	C381.994965,283.425201 381.996246,289.689392 381.997528,295.953552 
z"/>
<path fill="#3B71FB" opacity="1.000000" stroke="none" 
	d="
M382.460480,296.034790 
	C381.996246,289.689392 381.994965,283.425201 381.992004,276.710876 
	C398.120300,276.182037 414.251160,275.975952 430.379761,276.090454 
	C436.442444,276.133484 440.246887,280.527130 440.154816,286.435394 
	C440.063477,292.300354 436.152283,296.113800 429.837433,296.137970 
	C414.199677,296.197815 398.561462,296.131592 382.460480,296.034790 
z"/>
<path fill="#3F79FD" opacity="1.000000" stroke="none" 
	d="
M380.536926,341.968170 
	C380.995941,348.327637 380.995209,354.588043 380.993652,361.299377 
	C365.011810,361.825836 349.029327,362.050049 333.050354,361.900757 
	C327.001465,361.844238 323.023743,357.242462 323.181396,351.544220 
	C323.340881,345.780151 327.346802,341.859436 333.615692,341.826965 
	C349.102386,341.746674 364.589966,341.843475 380.536926,341.968170 
z"/>
<path fill="#3260FE" opacity="1.000000" stroke="none" 
	d="
M579.998291,295.955750 
	C564.177673,296.021362 548.356873,296.166077 532.536621,296.111603 
	C526.645020,296.091339 522.862183,292.094208 522.747742,286.360596 
	C522.630310,280.483612 526.467041,276.223358 532.597900,276.082367 
	C541.921448,275.867889 551.253174,275.997986 560.581421,276.003754 
	C566.744263,276.007538 572.907104,276.049835 579.531982,276.615570 
	C579.995483,283.422760 579.996887,289.689240 579.998291,295.955750 
z"/>
<path fill="#3E75F6" opacity="1.000000" stroke="none" 
	d="
M329.413696,211.103546 
	C335.738403,210.745804 341.688019,210.431564 347.641052,210.337189 
	C354.280853,210.231903 360.930420,210.144958 367.563446,210.386887 
	C373.750702,210.612549 377.817688,214.704376 377.962433,220.279770 
	C378.116608,226.218628 374.538635,230.509995 368.282013,230.672180 
	C356.501984,230.977554 344.705414,230.922424 332.922180,230.689560 
	C328.216217,230.596573 324.720062,228.013092 323.413116,223.266800 
	C322.071777,218.395599 324.016724,214.448227 329.413696,211.103546 
z"/>
<path fill="#3E77FA" opacity="1.000000" stroke="none" 
	d="
M366.439423,427.502289 
	C355.524811,427.510254 345.055359,427.561096 334.586517,427.499023 
	C327.478210,427.456848 323.313416,423.845673 323.164093,417.806976 
	C323.009491,411.556671 327.276794,407.324005 334.398102,407.208679 
	C345.030701,407.036499 355.668671,407.088104 366.303162,407.180359 
	C373.475220,407.242584 377.641937,410.800110 377.941833,416.798126 
	C378.251556,422.991455 374.378754,426.738831 366.439423,427.502289 
z"/>
<path fill="#2F58F0" opacity="1.000000" stroke="none" 
	d="
M570.402344,230.602325 
	C569.966553,226.324814 569.783203,222.163422 570.064209,218.033630 
	C570.370605,213.529572 568.703796,211.815628 564.085693,211.920517 
	C553.307129,212.165344 542.518921,212.028244 531.735107,211.960724 
	C529.965454,211.949646 528.198547,211.505783 526.210266,210.979370 
	C530.626343,210.556595 535.262329,210.303879 539.898743,210.295319 
	C561.999695,210.254532 584.100952,210.258545 606.201965,210.295670 
	C612.505981,210.306259 616.554688,213.325546 617.588989,218.561218 
	C618.920715,225.301987 614.347473,230.702988 606.747375,230.797180 
	C594.786865,230.945435 582.822266,230.770508 570.402344,230.602325 
z"/>
<path fill="#4889FE" opacity="1.000000" stroke="none" 
	d="
M238.537842,538.977600 
	C238.996017,545.333374 238.995209,551.585999 238.994110,558.288940 
	C221.968674,558.804016 204.943573,558.868835 187.458466,558.385864 
	C186.998459,551.586487 186.998428,545.334900 186.998383,539.083252 
	C204.025208,539.013672 221.052048,538.944031 238.537842,538.977600 
z"/>
<path fill="#2F5CFB" opacity="1.000000" stroke="none" 
	d="
M527.996094,473.254913 
	C542.606262,473.179230 557.217468,472.977478 571.826172,473.091614 
	C577.461304,473.135590 581.490662,477.666260 581.473816,483.086517 
	C581.456482,488.695404 577.233643,493.068512 571.280029,493.115295 
	C557.162231,493.226318 543.042725,493.128326 528.461731,492.570007 
	C527.998352,485.768402 527.997253,479.511658 527.996094,473.254913 
z"/>
<path fill="#3260FE" opacity="1.000000" stroke="none" 
	d="
M488.987244,558.759277 
	C472.633057,558.818726 456.278839,558.878113 439.463531,558.395203 
	C439.001831,551.592407 439.001221,545.331848 439.000610,539.071350 
	C455.358826,539.006165 471.717072,538.941040 488.535645,539.434631 
	C488.993103,546.248657 488.990173,552.504028 488.987244,558.759277 
z"/>
<path fill="#3262FC" opacity="1.000000" stroke="none" 
	d="
M503.453064,164.847290 
	C502.993988,158.501587 502.995880,152.250992 502.997894,145.537689 
	C519.023865,145.006470 535.049683,144.937927 551.536133,145.428772 
	C551.994507,152.247025 551.992310,158.505905 551.990112,164.764786 
	C535.964722,164.824005 519.939331,164.883209 503.453064,164.847290 
z"/>
<path fill="#2E59FB" opacity="1.000000" stroke="none" 
	d="
M580.461426,296.035400 
	C579.996887,289.689240 579.995483,283.422760 579.992188,276.705872 
	C593.640686,276.187103 607.293274,275.954468 620.940674,276.127075 
	C626.823608,276.201447 631.041016,280.999817 630.924377,286.494202 
	C630.805908,292.076202 626.532654,296.111755 620.398499,296.139069 
	C607.240845,296.197632 594.082581,296.130615 580.461426,296.035400 
z"/>
<path fill="#3363FE" opacity="1.000000" stroke="none" 
	d="
M523.608215,407.598328 
	C525.576355,408.152924 527.080688,408.906555 528.600769,408.939911 
	C534.910706,409.078400 541.225403,408.991791 547.538391,409.002625 
	C553.989075,409.013702 553.993530,409.021301 554.000671,415.701263 
	C554.004456,419.189972 553.989380,422.678680 553.972229,426.643799 
	C539.032593,427.188171 524.103149,427.350433 509.174896,427.272736 
	C503.982971,427.245728 500.196564,423.121643 500.014740,418.006897 
	C499.819794,412.522614 504.014709,407.743164 509.718994,407.430511 
	C514.182495,407.185944 518.673096,407.435883 523.608215,407.598328 
z"/>
<path fill="#4C90FD" opacity="1.000000" stroke="none" 
	d="
M186.539978,538.976562 
	C186.998428,545.334900 186.998459,551.586487 186.998901,558.288452 
	C174.041763,558.816223 161.082016,559.065613 148.127655,558.898071 
	C141.677872,558.814758 137.610657,554.361877 137.751541,548.505066 
	C137.890198,542.741882 142.192429,538.822876 148.685532,538.802368 
	C161.150681,538.763062 173.616196,538.840759 186.539978,538.976562 
z"/>
<path fill="#3F77F8" opacity="1.000000" stroke="none" 
	d="
M296.446381,558.851440 
	C295.988434,552.499756 295.991547,546.245544 295.994263,539.527832 
	C311.023529,538.995239 326.053223,538.926270 341.542114,538.961304 
	C342.001862,545.328979 342.002380,551.592590 342.003662,558.307739 
	C326.972076,558.822449 311.939728,558.885620 296.446381,558.851440 
z"/>
<path fill="#2E59F8" opacity="1.000000" stroke="none" 
	d="
M584.448364,361.855347 
	C583.990173,355.504059 583.993103,349.248688 583.995789,342.530090 
	C596.152100,341.974243 608.309082,341.775848 620.464966,341.833679 
	C626.578369,341.862793 630.804260,346.057892 630.931946,351.656036 
	C631.064697,357.474945 626.792175,361.894409 620.402405,361.969849 
	C608.573181,362.109528 596.740662,361.972839 584.448364,361.855347 
z"/>
<path fill="#3465FD" opacity="1.000000" stroke="none" 
	d="
M527.535278,473.164032 
	C527.997253,479.511658 527.998352,485.768402 527.998657,492.490387 
	C513.973816,493.007202 499.949860,493.058777 485.462952,492.566528 
	C485.000458,485.767975 485.000916,479.513306 485.001373,473.258636 
	C499.025757,473.196808 513.050110,473.134979 527.535278,473.164032 
z"/>
<path fill="#4988F9" opacity="1.000000" stroke="none" 
	d="
M200.459457,493.040741 
	C199.994965,486.690887 199.993042,480.424957 199.989014,473.708435 
	C211.133591,473.178070 222.281906,472.953308 233.426315,473.077393 
	C239.344635,473.143311 243.519180,477.770569 243.374786,483.386902 
	C243.230667,488.992523 238.991211,493.081299 232.885727,493.135193 
	C222.232025,493.229248 211.576675,493.138153 200.459457,493.040741 
z"/>
<path fill="#4988F9" opacity="1.000000" stroke="none" 
	d="
M201.448151,361.849915 
	C200.990295,355.498932 200.992905,349.247040 200.995728,342.531799 
	C211.974518,341.980591 222.955246,341.728729 233.930756,341.873352 
	C239.498062,341.946686 243.489960,346.635742 243.364578,352.110443 
	C243.237717,357.650818 239.016205,361.854462 232.872665,361.951660 
	C222.553909,362.114990 212.230225,361.966370 201.448151,361.849915 
z"/>
<path fill="#4988F9" opacity="1.000000" stroke="none" 
	d="
M201.459305,296.040497 
	C200.994812,289.690796 200.992889,283.425049 200.988831,276.708740 
	C211.797775,276.180145 222.611115,275.939301 233.419052,276.089233 
	C239.276047,276.170502 243.521378,280.918854 243.371780,286.440643 
	C243.218979,292.081024 239.000061,296.101379 232.879440,296.144867 
	C222.560822,296.218201 212.241119,296.139343 201.459305,296.040497 
z"/>
<path fill="#3667FA" opacity="1.000000" stroke="none" 
	d="
M438.541168,538.968811 
	C439.001221,545.331848 439.001831,551.592407 439.003113,558.303955 
	C425.972656,558.819031 412.941467,558.883057 399.449310,558.850220 
	C398.990845,552.502136 398.993408,546.250977 398.995911,539.536987 
	C412.024506,539.004944 425.053101,538.935608 438.541168,538.968811 
z"/>
<path fill="#386BFD" opacity="1.000000" stroke="none" 
	d="
M484.540710,473.164948 
	C485.000916,479.513306 485.000458,485.767975 484.999878,492.487701 
	C474.382141,493.020752 463.764008,493.181366 453.147095,493.120361 
	C447.215485,493.086304 443.228973,489.204224 443.019562,483.717987 
	C442.802765,478.038025 447.169922,473.192291 453.212128,473.079407 
	C463.497894,472.887238 473.790405,473.054840 484.540710,473.164948 
z"/>
<path fill="#2E59F8" opacity="1.000000" stroke="none" 
	d="
M552.451294,164.859283 
	C551.992310,158.505905 551.994507,152.247025 551.996460,145.524414 
	C561.442566,144.979477 570.892456,144.712433 580.334290,144.884567 
	C586.304993,144.993393 590.265198,149.491730 590.146606,155.219086 
	C590.029724,160.863602 585.890625,164.914734 579.782227,164.985596 
	C570.827026,165.089493 561.869202,164.975128 552.451294,164.859283 
z"/>
<path fill="#2E59F8" opacity="1.000000" stroke="none" 
	d="
M489.448425,558.855347 
	C488.990173,552.504028 488.993103,546.248657 488.995972,539.530029 
	C498.120819,538.972656 507.246094,538.783203 516.370544,538.817383 
	C522.611694,538.840698 526.578735,542.696899 526.738159,548.496521 
	C526.893738,554.154541 522.585999,558.759827 516.309387,558.928833 
	C507.515625,559.165588 498.710114,558.964905 489.448425,558.855347 
z"/>
</svg>